# xmcd
#
# Track frame offsets:
#	150
#	16700
#	34320
#	53105
#	66627
#	82357
#	95110
#	113270
#	122880
#	139450
#	154687
#	169687
#	181472
#	194347
#	214037
#	232272
#	246147
#	257495
#	271427
#	284367
#	297650
#	310390
#	327415
#
# Disc length: 4577 seconds
#
# Revision: 1
# Processed by: cddbd v1.4PL0 Copyright (c) Steve Scherf et al.
# Submitted via: audiograbber 1.80.04
#
DISCID=6c11df17
DTITLE=Various Artist - Goin' Country
DYEAR=1996
DGENRE=Country
TTITLE0=Watermelon Henry - Goin' Country
TTITLE1=Martin White - There You Go
TTITLE2=Simon Richmond - EJ's Bar
TTITLE3=Anton and The Buzz Band - Country Married Rock n Roll
TTITLE4=Capricorn - Line Dancin' Days
TTITLE5=TJ McCall - Country Hall Of Fame
TTITLE6=Bobby Lee - This Don't Feel Like Dancin'
TTITLE7=Hollywood Hillbillies - No Honky Tonks In Heaven
TTITLE8=Shot To Pieces - Too Easy
TTITLE9=Simon Richmond - Good Times Come Around
TTITLE10=Watermelon Henry - Love My Car
TTITLE11=Chris Sayer - Love Kept It's Hold On My Heart
TTITLE12=Quinton Horton - I Learnt A Thing Or Two
TTITLE13=Shot To Pieces - Ain't Life Wonderful
TTITLE14=David Christie - Saddle Up Country Style
TTITLE15=Watermelon Henry - Louisianna
TTITLE16=Simon Richmond - Daddy's Got His Blue Jeans On
TTITLE17=Cheep Seats, The - Here There And Everywhere
TTITLE18=Hollywood Hillbillies - 3 Time Loser
TTITLE19=Cheep Seats, The - Here And Everywhere
TTITLE20=Northern Lights - Situation Vacant
TTITLE21=Watermelon Henry - Burnin' Fire
TTITLE22=Simon Richmond - Let's Here It Fore The Ladies
EXTD=
EXTT0=
EXTT1=
EXTT2=
EXTT3=
EXTT4=
EXTT5=
EXTT6=
EXTT7=
EXTT8=
EXTT9=
EXTT10=
EXTT11=
EXTT12=
EXTT13=
EXTT14=
EXTT15=
EXTT16=
EXTT17=
EXTT18=
EXTT19=
EXTT20=
EXTT21=
EXTT22=
PLAYORDER=
